<?xml version="1.0" encoding="utf-8"?>
<!-- Generator: Adobe Illustrator 25.3.1, SVG Export Plug-In . SVG Version: 6.00 Build 0)  -->
<svg version="1.1" id="Слой_1" xmlns="http://www.w3.org/2000/svg" xmlns:xlink="http://www.w3.org/1999/xlink" x="0px" y="0px"
	 viewBox="0 0 201 201" style="enable-background:new 0 0 201 201;" xml:space="preserve">
<style type="text/css">
	.st0{fill:#FFFFFF;}
</style>
<circle cx="100.5" cy="100.5" r="100"/>
<path class="st0" d="M80.15,92.05h20v54.82c0,5.62-4.48,10.18-10,10.18c-5.52,0-10-4.56-10-10.18V92.05z"/>
<path class="st0" d="M152.66,36.19c0,10.75-9.33,19.46-20.83,19.46H100.5v5.54H79.81v-5.54H27.66c0-10.75,9.32-19.46,20.83-19.46
	H152.66z"/>
<path class="st0" d="M183.36,67.4c0,10.89-9.33,19.72-20.83,19.72H131.2v90.09c0,5.63-4.63,10.19-10.34,10.19
	c-5.71,0-10.35-4.56-10.35-10.19V87.12H58.36c0-10.89,9.32-19.72,20.83-19.72H183.36z"/>
</svg>
