<?xml version="1.0" encoding="utf-8"?>
<!-- Generator: Adobe Illustrator 25.3.1, SVG Export Plug-In . SVG Version: 6.00 Build 0)  -->
<svg version="1.1" id="Слой_1" xmlns="http://www.w3.org/2000/svg" xmlns:xlink="http://www.w3.org/1999/xlink" x="0px" y="0px"
	 viewBox="0 0 448 512" style="enable-background:new 0 0 448 512;" xml:space="preserve">
<style type="text/css">
	.st0{fill:#FFFFFF;}
</style>
<path class="st0" d="M31.5,63.5C0,95,0,145.7,0,247V265C0,366.3,0,417,31.5,448.5C63,480,113.7,480,215,480H233
	c101.4,0,152.1,0,183.5-31.5C448,417,448,366.3,448,265V247c0-101.4,0-152.1-31.5-183.5C385,32,334.3,32,233,32H215
	C113.7,32,63,32,31.5,63.5z M75.6,168.3h51.1c1.7,85.5,39.4,121.7,69.3,129.2V168.3h48.2V242c29.5-3.2,60.5-36.8,70.9-73.7h48.2
	c-3.9,19.2-11.8,37.3-23.1,53.3c-11.3,16-25.7,29.5-42.5,39.6c18.7,9.3,35.2,22.4,48.4,38.5c13.2,16.1,22.9,34.9,28.3,55h-53
	c-4.9-17.5-14.8-33.1-28.6-45c-13.7-11.9-30.7-19.4-48.7-21.6v66.6h-5.8C136.3,354.7,78,284.7,75.6,168.3z"/>
</svg>
